<svg width="86" height="52" viewBox="0 0 86 52" fill="none" xmlns="http://www.w3.org/2000/svg">
<path d="M10.8682 20.4379C10.8682 19.0401 11.2145 17.7745 11.9071 16.6412C12.5997 15.4953 13.5253 14.5823 14.6838 13.9023C15.8423 13.2223 17.1268 12.8823 18.5372 12.8823H32.6095V16.849H18.5372C17.5172 16.849 16.6483 17.2016 15.9305 17.9068C15.2127 18.5994 14.8538 19.4431 14.8538 20.4379V32.2625C14.8538 33.2195 15.2127 34.0443 15.9305 34.7369C16.6483 35.4169 17.5172 35.7569 18.5372 35.7569H32.6095V39.7425H18.5372C17.1268 39.7425 15.8423 39.4088 14.6838 38.7414C13.5253 38.074 12.5997 37.1799 11.9071 36.0592C11.2145 34.9258 10.8682 33.6791 10.8682 32.3191V20.4379Z" fill="#252525"/>
<path d="M74.6377 20.4379C74.6377 19.0401 74.2914 17.7745 73.5988 16.6412C72.9062 15.4953 71.9807 14.5823 70.8221 13.9023C69.6636 13.2223 68.3792 12.8823 66.9688 12.8823H52.8964V16.849H66.9688C67.9888 16.849 68.8577 17.2016 69.5755 17.9068C70.2932 18.5994 70.6521 19.4431 70.6521 20.4379V32.2625C70.6521 33.2195 70.2932 34.0443 69.5755 34.7369C68.8577 35.4169 67.9888 35.7569 66.9688 35.7569H52.8964V39.7425H66.9688C68.3792 39.7425 69.6636 39.4088 70.8221 38.7414C71.9807 38.074 72.9062 37.1799 73.5988 36.0592C74.2914 34.9258 74.6377 33.6791 74.6377 32.3191V20.4379Z" fill="#252525"/>
<path d="M31.1174 12.8823H52.9909V16.849H44.0564V39.7425H40.0519V16.849H31.1174V12.8823Z" fill="#252525"/>
<path d="M71.0617 11.7484C71.2052 11.3058 71.7741 11.1845 72.0857 11.5301L74.89 14.6402C75.2016 14.9858 75.0222 15.5391 74.5671 15.6361L70.4715 16.5097C70.0164 16.6067 69.627 16.1748 69.7704 15.7321L71.0617 11.7484Z" fill="white"/>
<path d="M71.0617 41.0281C71.2052 41.4707 71.7741 41.592 72.0857 41.2464L74.89 38.1363C75.2016 37.7907 75.0222 37.2374 74.5671 37.1404L70.4715 36.2668C70.0164 36.1698 69.627 36.6017 69.7704 37.0444L71.0617 41.0281Z" fill="white"/>
<path d="M13.9843 11.7484C13.8408 11.3058 13.272 11.1845 12.9604 11.5301L10.156 14.6402C9.84445 14.9858 10.0238 15.5391 10.4789 15.6361L14.5745 16.5097C15.0296 16.6067 15.4191 16.1748 15.2756 15.7321L13.9843 11.7484Z" fill="white"/>
<path d="M13.9843 41.0281C13.8408 41.4707 13.272 41.592 12.9604 41.2464L10.156 38.1363C9.84445 37.7907 10.0238 37.2374 10.4789 37.1404L14.5745 36.2668C15.0296 36.1698 15.4191 36.6017 15.2756 37.0444L13.9843 41.0281Z" fill="white"/>
<path d="M42.9918 14.5377C42.7603 14.9413 42.1787 14.9429 41.9449 14.5406L39.8411 10.9196C39.6073 10.5173 39.8967 10.0128 40.362 10.0115L44.5498 10C45.0151 9.99872 45.3073 10.5016 45.0757 10.9052L42.9918 14.5377Z" fill="white"/>
</svg>
